<svg width="450" height="287" viewBox="0 0 450 287" fill="none" xmlns="http://www.w3.org/2000/svg">
<path d="M106 103C107.269 93.7383 108.407 85.7675 114 81.5C117.933 86.7555 118.373 91.4234 119.5 97C131.797 100.433 138.37 102.393 140 107C145.853 107.379 148.703 108.326 153.5 110.5C155.9 115.977 155.785 119.3 154 125.5C151.349 131.818 141.773 134.568 139.5 139.5C144.847 139.827 148.444 139.936 156 140C158.714 140.535 165.845 132.82 187 107C197.745 88.8028 201.24 69.4352 206 75C207.982 69.0879 214.896 68.7854 217.5 78C217.989 81.1664 217.228 82.2707 215.5 84C217.126 84.345 217.259 85.3031 217 87.5C215.532 90.146 208.968 93.1343 201.5 105C200.905 109.317 200.086 111.355 198 114.5C184.5 138 187.5 143.5 181 155.5C172.641 160.833 166.12 166.183 164 168.5C155.702 170.95 152.051 179.631 151.5 182.5C151.5 182.5 146.576 206.559 142 218C138.928 220.783 139.252 259.216 141.5 263.5C143.748 267.784 144.785 270.807 148 274.5C150.143 273.591 151.446 273.345 154 273.5C158.928 276.504 161.936 279.389 158 283C153.011 283.163 140.5 283 140.5 283C139.563 283.476 132.752 274.886 130.5 269C130.303 268.484 129.5 268 129.5 268V265V263C129.233 262.762 124.416 235.994 121.623 233.112C123.139 234.794 123.082 246.146 122 250C120.89 253.955 113.638 262.934 109 268C108.04 269.048 106.237 270.395 108 271.5C109.763 272.605 114.193 270.439 118 271.5C120.825 272.287 128.975 276.258 128 279.5C127.025 282.741 123.607 282.766 121.5 283.5C119.393 284.234 57.5 283 55.5 283C53.5 283 58.3171 280.697 53 281C47.8223 281.295 44.3734 281.367 38.4812 281.49L38 281.5C20.645 281.893 12.6293 279.319 4 265.5C4 265.5 -5 252.5 4 234C13 215.5 34.8378 211.222 35.5 211.5C36.1621 211.778 41 217.5 33.5 221C26 224.5 7.89577 233.088 10.5 253C11.2001 267.716 34.5778 274.935 48 264C48.9877 262.428 46.9878 238.643 46.5 234C46.0121 229.357 52 204.5 55 198.5C58 192.5 68.1134 175.942 78.5 168C88.8866 160.058 100.268 159.501 101.5 156C103.735 150.3 98.7431 129.969 97.5 124.5C96.2569 119.031 102.355 112.787 106 103Z" fill="#FF9447"/>
<path d="M200 43.5C200.999 43.4471 221 46 222.5 46L227.5 52C229.938 59.1058 232.844 72.7508 231 94.5C231.963 106.285 231.764 111.682 230 119C231.771 118.271 233 116 233 116V124.5L234.5 123C234.332 125.978 234.352 127.88 234.5 131.5C238.76 141.994 240.56 147.397 242.5 156C251.937 170.85 254.339 185.009 259 209.5C259.844 231.206 260.043 241.683 260.5 261C257.675 266.613 256.426 268.98 254.5 272.5C249.098 273.02 246.762 274.385 244 279C243.086 283.415 244.168 284.033 247.5 283.5V285.5C258.452 286.679 262.704 286.229 267 283.5C270.065 283.074 279.107 268.387 282 249C283.28 250.359 286.291 246.838 285 242.5L284.992 242.474C284.7 241.491 283.454 237.309 284 235C288.09 209.035 290.317 194.753 291 183C290.103 180.871 289.557 179.668 288.5 177.5C298.744 175.887 303.994 173.795 312.5 168C327.192 159.218 334.709 157.451 347.5 157C348.274 169.964 353.254 182.428 379.5 224.5C380.927 227.345 386.63 241.105 382.5 268C376.363 266.259 369.643 277.187 371.5 279C373.357 280.813 384.475 280.891 390 280C395.525 279.109 396.029 272.411 397 223C390.547 213 388.253 207.022 389 195C399.381 203.826 405.898 209.672 419 222C432.071 242.411 434.713 253.189 436.5 272C426.493 272.09 423.426 281.5 429.5 284.5C435.574 287.5 444.213 284.957 447 282.5C449.006 282.21 449.765 280.142 449.5 268C446.728 246.671 442.575 217.6 441 216.5C432.494 206.896 427.672 199.352 419 183C414.812 169.078 403.83 132.669 394 121C404.399 108.89 410.698 102.792 417 89C424.848 75.2177 431.067 57.217 428.5 31C418.276 69.2742 409.5 84.5 408.5 85.5C408.627 86.1491 393.556 103.426 380.5 109C373.524 103.256 369.134 101.164 360 100.5C340.757 96.6363 326.939 94.5626 322.5 92.5C306.557 84.1558 298.453 78.7776 286 67.5C277.68 52.9264 272.754 41.8323 263 19C263.072 6.45874 238.435 -3.10257 225.5 2.00002C218.514 9.90444 212.607 12.6073 190 16.5C186.914 16.7438 185.951 17.3767 185 19C185.424 24.7059 186.324 26.0078 188 28V31C188.447 36.1905 196.045 43.7095 200 43.5Z" fill="#FF9447"/>
</svg>
