<svg width="48" height="48" viewBox="0 0 48 48" fill="none" xmlns="http://www.w3.org/2000/svg">
<path fill-rule="evenodd" clip-rule="evenodd" d="M47.7778 23.8889C47.7778 37.0824 37.0824 47.7778 23.8889 47.7778C10.6954 47.7778 0 37.0824 0 23.8889C0 10.6954 10.6954 0 23.8889 0C37.0824 0 47.7778 10.6954 47.7778 23.8889ZM3.61108 23.8889C3.61108 28.4893 5.14306 32.7319 7.72467 36.1344C10.4548 30.9977 15.8606 27.5 22.0833 27.5H23.8889H25.6944C31.9172 27.5 37.323 30.9977 40.0531 36.1344C42.6347 32.7319 44.1666 28.4893 44.1666 23.8889C44.1666 12.6898 35.088 3.61111 23.8889 3.61111C12.6898 3.61111 3.61108 12.6898 3.61108 23.8889ZM23.8889 27.5C18.903 27.5 14.8611 23.4581 14.8611 18.4722C14.8611 13.4863 18.903 9.44442 23.8889 9.44442C28.8748 9.44442 32.9166 13.4863 32.9166 18.4722C32.9166 23.4581 28.8748 27.5 23.8889 27.5Z" fill="#FFF8F4"/>
</svg>
