<svg width="19" height="19" viewBox="0 0 19 19" fill="none"
    xmlns="http://www.w3.org/2000/svg">
    <mask id="path-1-inside-1_284_126" fill="white">
        <path d="M11.8852 1.08527C11.9177 1.05278 11.9519 1.0228 11.9902 0.997355C12.3585 0.75251 14.4849 -0.485531 16.7989 1.82843C19.1128 4.14238 17.8748 6.26881 17.63 6.63714C17.6045 6.67541 17.5745 6.70963 17.542 6.74213L7.82164 16.4625C7.69917 16.585 7.54699 16.6736 7.38001 16.7195L1.52517 18.3317C0.777062 18.5377 0.0895702 17.8503 0.295571 17.1021L1.90777 11.2473C1.95375 11.0803 2.04232 10.9281 2.16478 10.8057L11.8852 1.08527Z"/>
    </mask>
    <path d="M10.2278 4.29901L14.4705 8.54165L15.8847 7.12743L11.642 2.88479L10.2278 4.29901ZM1.52517 18.3317L0.994206 16.4035L1.52517 18.3317ZM0.295571 17.1021L2.2238 17.6331L0.295571 17.1021ZM1.90777 11.2473L3.83601 11.7783L1.90777 11.2473ZM7.38001 16.7195L6.84905 14.7913L7.38001 16.7195ZM17.63 6.63714L19.2955 7.74433L17.63 6.63714ZM16.1278 5.32791L6.40742 15.0483L9.23585 17.8767L18.9563 8.15634L16.1278 5.32791ZM3.579 12.2199L13.2994 2.49949L10.471 -0.328939L0.750571 9.39146L3.579 12.2199ZM6.84905 14.7913L0.994206 16.4035L2.05613 20.26L7.91097 18.6478L6.84905 14.7913ZM2.2238 17.6331L3.83601 11.7783L-0.0204575 10.7163L-1.63266 16.5712L2.2238 17.6331ZM13.0974 2.66292C13.1291 2.64185 13.4073 2.4719 13.7821 2.44991C14.0608 2.43355 14.6187 2.47667 15.3847 3.24264L18.2131 0.414214C16.6651 -1.13377 15.0028 -1.62861 13.5478 -1.54323C12.1888 -1.46348 11.2196 -0.891984 10.883 -0.668214L13.0974 2.66292ZM15.3847 3.24264C16.1506 4.00862 16.1938 4.56647 16.1774 4.84523C16.1554 5.22001 15.9855 5.49824 15.9644 5.52994L19.2955 7.74433C19.5193 7.40771 20.0908 6.43856 20.1705 5.07956C20.2559 3.62453 19.7611 1.9622 18.2131 0.414214L15.3847 3.24264ZM0.994206 16.4035C1.74231 16.1975 2.4298 16.885 2.2238 17.6331L-1.63266 16.5712C-2.25066 18.8155 -0.188188 20.878 2.05613 20.26L0.994206 16.4035ZM0.750571 9.39146C0.383166 9.75887 0.117484 10.2154 -0.0204575 10.7163L3.83601 11.7783C3.79003 11.9452 3.70147 12.0974 3.579 12.2199L0.750571 9.39146ZM6.40742 15.0483C6.52989 14.9258 6.68207 14.8373 6.84905 14.7913L7.91097 18.6478C8.41192 18.5098 8.86845 18.2441 9.23585 17.8767L6.40742 15.0483ZM18.9563 8.15634C19.0483 8.0643 19.174 7.9271 19.2955 7.74433L15.9644 5.52994C16.035 5.42372 16.1008 5.35496 16.1278 5.32791L18.9563 8.15634ZM13.2994 2.49949C13.2724 2.52653 13.2036 2.59231 13.0974 2.66292L10.883 -0.668214C10.7002 -0.546716 10.563 -0.420981 10.471 -0.328939L13.2994 2.49949Z" fill="#FFF8F4" mask="url(#path-1-inside-1_284_126)"/>
</svg>
