<svg width="33" height="32" viewBox="0 0 33 32" fill="none" xmlns="http://www.w3.org/2000/svg">
<g clip-path="url(#clip0_138_638)">
<path d="M24.4963 10.6315H23.1667V7.97217C23.1667 4.30237 20.1883 1.32397 16.5185 1.32397C12.8487 1.32397 9.87027 4.30237 9.87027 7.97217V10.6315H8.54063C7.07802 10.6315 5.88135 11.8281 5.88135 13.2907V26.5871C5.88135 28.0497 7.07802 29.2464 8.54063 29.2464H24.4963C25.9589 29.2464 27.1556 28.0497 27.1556 26.5871V13.2907C27.1556 11.8281 25.9589 10.6315 24.4963 10.6315ZM16.5185 22.5982C15.0559 22.5982 13.8592 21.4015 13.8592 19.9389C13.8592 18.4763 15.0559 17.2797 16.5185 17.2797C17.9811 17.2797 19.1777 18.4763 19.1777 19.9389C19.1777 21.4015 17.9811 22.5982 16.5185 22.5982ZM20.6404 10.6315H12.3966V7.97217C12.3966 5.69849 14.2448 3.85029 16.5185 3.85029C18.7922 3.85029 20.6404 5.69849 20.6404 7.97217V10.6315Z" fill="#290005"/>
</g>
<defs>
<clipPath id="clip0_138_638">
<rect width="31.9114" height="31.9114" fill="white" transform="translate(0.5625 -0.00561523)"/>
</clipPath>
</defs>
</svg>
