<svg width="44" height="44" viewBox="0 0 44 44" fill="none" xmlns="http://www.w3.org/2000/svg">
<g id="Group">
<g id="Layer_128">
<path id="Shape" fill-rule="evenodd" clip-rule="evenodd" d="M22 0.666626C33.7821 0.666626 43.3334 10.2179 43.3334 22C43.3334 27.6579 41.0857 33.0841 37.085 37.0849C33.0842 41.0857 27.658 43.3333 22 43.3333C10.2179 43.3333 0.666687 33.782 0.666687 22C0.666687 10.2179 10.2179 0.666626 22 0.666626ZM24.6667 8.66663V24.6666C24.6667 26.1394 23.4728 27.3333 22 27.3333C20.5273 27.3333 19.3334 26.1394 19.3334 24.6666V8.66663C19.3334 7.19387 20.5273 5.99996 22 5.99996C23.4728 5.99996 24.6667 7.19387 24.6667 8.66663ZM23.4934 33.12C23.3447 33.019 23.1833 32.9383 23.0134 32.88C22.8546 32.7988 22.6833 32.7447 22.5067 32.72C21.6367 32.5458 20.7371 32.8156 20.1067 33.44C19.6075 33.9432 19.3293 34.6245 19.3334 35.3333C19.3293 36.0421 19.6075 36.7234 20.1067 37.2266C20.3659 37.4622 20.6635 37.6516 20.9867 37.7866C21.6321 38.0719 22.3679 38.0719 23.0134 37.7866C23.3365 37.6516 23.6342 37.4622 23.8934 37.2266C24.3925 36.7234 24.6708 36.0421 24.6667 35.3333C24.6569 34.6272 24.3806 33.951 23.8934 33.44C23.7666 33.3253 23.6331 33.2184 23.4934 33.12Z" fill="white"/>
</g>
</g>
</svg>
