<svg width="95" height="60" viewBox="0 0 95 60" fill="none" xmlns="http://www.w3.org/2000/svg">
<path d="M22.2757 21.5193C22.5423 19.573 22.7815 17.8979 23.9569 17.0011C24.7834 18.1056 24.876 19.0865 25.1127 20.2584C27.697 20.9799 29.0782 21.3918 29.4208 22.3599C30.6509 22.4396 31.2496 22.6387 32.2578 23.0954C32.7622 24.2465 32.738 24.9448 32.3628 26.2476C31.8057 27.5753 29.7933 28.1532 29.3157 29.1897C30.4393 29.2585 31.1953 29.2814 32.7831 29.2948C33.3534 29.4072 34.852 27.786 39.2977 22.3599C41.5558 18.5358 42.2903 14.4657 43.2905 15.6352C43.7071 14.3927 45.16 14.3292 45.7072 16.2656C45.8101 16.931 45.6501 17.1631 45.2869 17.5265C45.6286 17.599 45.6566 17.8003 45.6022 18.262C45.2937 18.8181 43.9143 19.4461 42.3449 21.9396C42.2199 22.8468 42.0477 23.2751 41.6094 23.936C38.7724 28.8745 39.4028 30.0303 38.0368 32.5521C36.2802 33.6728 34.9099 34.7971 34.4643 35.284C32.7204 35.7988 31.9532 37.6231 31.8375 38.2261C31.8375 38.2261 30.8028 43.2821 29.8411 45.6864C29.1954 46.2712 29.2636 54.3478 29.736 55.2481C30.2084 56.1484 30.4263 56.7837 31.1019 57.5597C31.5523 57.3686 31.8261 57.317 32.3628 57.3496C33.3985 57.9809 34.0306 58.5871 33.2034 59.346C32.1551 59.3802 29.5258 59.346 29.5258 59.346C29.3288 59.4461 27.8975 57.6408 27.4244 56.4039C27.3829 56.2955 27.2142 56.1938 27.2142 56.1938V55.5633V55.143C27.1581 55.093 26.1458 49.4678 25.5588 48.8622C25.8775 49.2155 25.8655 51.6012 25.6381 52.4111C25.4047 53.2423 23.8809 55.1291 22.9062 56.1938C22.7044 56.4141 22.3255 56.6971 22.696 56.9293C23.0665 57.1614 23.9974 56.7063 24.7975 56.9293C25.3911 57.0947 27.1038 57.9292 26.899 58.6105C26.6941 59.2917 25.9758 59.2968 25.533 59.4511C25.0902 59.6053 12.0835 59.346 11.6632 59.346C11.2429 59.346 12.2552 58.862 11.1379 58.9257C10.0498 58.9877 9.3251 59.0028 8.087 59.0286L7.98563 59.0308C4.33851 59.1134 2.65403 58.5725 0.840592 55.6684C0.840592 55.6684 -1.05074 52.9365 0.840592 49.0487C2.73193 45.161 7.32111 44.262 7.46026 44.3204C7.59941 44.3788 8.61608 45.5813 7.03996 46.3168C5.46385 47.0523 1.65928 48.8571 2.20656 53.0416C2.35367 56.1341 7.26646 57.6512 10.0871 55.3532C10.2947 55.0228 9.87441 50.0245 9.77189 49.0487C9.66937 48.073 10.9277 42.8494 11.5582 41.5885C12.1886 40.3276 14.3139 36.848 16.4966 35.179C18.6794 33.5099 21.071 33.393 21.33 32.6572C21.7997 31.4592 20.7507 27.1867 20.4895 26.0375C20.2282 24.8883 21.5097 23.5761 22.2757 21.5193Z" fill="#290005"/>
<path d="M42.0296 9.0155C42.2395 9.00438 46.4428 9.54087 46.758 9.54087L47.8087 10.8018C48.3211 12.295 48.9319 15.1625 48.5442 19.7331C48.7466 22.2097 48.7047 23.3439 48.3341 24.8817C48.7063 24.7285 48.9645 24.2512 48.9645 24.2512V26.0375L49.2798 25.7223C49.2445 26.3481 49.2487 26.7478 49.2798 27.5085C50.175 29.7138 50.5532 30.8493 50.9609 32.6572C52.9442 35.7779 53.4488 38.7533 54.4284 43.9001C54.6058 48.4616 54.6476 50.6633 54.7436 54.7227C54.15 55.9022 53.8876 56.3997 53.4827 57.1394C52.3474 57.2487 51.8565 57.5356 51.2762 58.5054C51.0842 59.4332 51.3114 59.5632 52.0117 59.4511V59.8713C54.3133 60.1191 55.2068 60.0246 56.1096 59.4511C56.7537 59.3616 58.6538 56.2752 59.2618 52.201C59.5308 52.4867 60.1636 51.7466 59.8923 50.835L59.8906 50.8295C59.8291 50.6231 59.5673 49.744 59.6821 49.2589C60.5416 43.8024 61.0096 40.8011 61.1531 38.3312C60.9646 37.8837 60.85 37.6309 60.6278 37.1754C62.7805 36.8365 63.8839 36.3968 65.6713 35.179C68.7589 33.3334 70.3386 32.9622 73.0265 32.8673C73.1891 35.5917 74.2356 38.2109 79.7513 47.0523C80.0512 47.6502 81.2496 50.5417 80.3817 56.1938C79.0921 55.828 77.6798 58.1244 78.0701 58.5054C78.4604 58.8863 80.7967 58.9028 81.9578 58.7155C83.119 58.5282 83.2249 57.1207 83.4289 46.7371C82.0728 44.6357 81.5907 43.3795 81.7477 40.853C83.9292 42.7078 85.2988 43.9363 88.0521 46.527C90.799 50.8162 91.3541 53.0814 91.7297 57.0343C89.6268 57.0533 88.9821 59.0307 90.2587 59.6612C91.5352 60.2917 93.3505 59.7573 93.9363 59.2409C94.3577 59.18 94.5173 58.7453 94.4616 56.1938C93.8791 51.7115 93.0064 45.6023 92.6754 45.3711C90.8878 43.3528 89.8745 41.7674 88.0521 38.3312C87.1719 35.4054 84.8641 27.7541 82.7984 25.302C84.9838 22.7571 86.3074 21.4757 87.6318 18.5772C89.2811 15.6809 90.588 11.8981 90.0485 6.38864C87.9001 14.4319 86.0557 17.6316 85.8456 17.8417C85.8722 17.9781 82.7051 21.6089 79.9614 22.7802C78.4953 21.5731 77.5728 21.1335 75.6534 20.9939C71.6096 20.182 68.7057 19.7462 67.7728 19.3128C64.4223 17.5592 62.7193 16.429 60.1024 14.0591C58.354 10.9964 57.3188 8.66502 55.269 3.86686C55.2841 1.23134 50.1066 -0.777956 47.3884 0.294345C45.9204 1.95545 44.6791 2.52345 39.9282 3.3415C39.2796 3.39272 39.0774 3.52572 38.8774 3.86686C38.9666 5.06595 39.1557 5.33954 39.5079 5.7582V6.38864C39.6018 7.4794 41.1986 9.05952 42.0296 9.0155Z" fill="#290005"/>
</svg>
